<?xml version="1.0" standalone="no"?>
<!DOCTYPE svg PUBLIC "-//W3C//DTD SVG 20010904//EN"
 "http://www.w3.org/TR/2001/REC-SVG-20010904/DTD/svg10.dtd">
<svg version="1.0" xmlns="http://www.w3.org/2000/svg"
 width="512.000000pt" height="512.000000pt" viewBox="0 0 512.000000 512.000000"
 preserveAspectRatio="xMidYMid meet">
<metadata>
Created by potrace 1.14, written by Peter Selinger 2001-2017
</metadata>
<g transform="translate(0.000000,512.000000) scale(0.100000,-0.100000)"
fill="#000000" stroke="none">
<path d="M0 2560 l0 -2560 2560 0 2560 0 0 2560 0 2560 -2560 0 -2560 0 0
-2560z m3394 1076 c200 -39 316 -94 403 -188 82 -90 118 -196 117 -348 -1
-203 -82 -347 -241 -433 l-63 -33 63 -29 c79 -36 183 -138 219 -215 50 -106
58 -179 58 -530 l0 -320 -234 0 -235 0 -4 323 c-4 342 -7 364 -55 435 -37 55
-83 88 -162 115 -64 21 -75 22 -792 25 l-728 3 0 -450 0 -451 -235 0 -235 0 0
1060 0 1061 1018 -4 c922 -3 1025 -5 1106 -21z"/>
<path d="M1740 3045 l0 -246 723 4 c758 4 778 5 862 49 39 21 81 66 94 101 6
16 11 60 11 98 0 86 -24 138 -79 175 -91 60 -69 58 -873 62 l-738 3 0 -246z"/>
</g>
</svg>
