{
    "asset" : {
        "generator" : "Khronos glTF Blender I/O v3.4.50",
        "version" : "2.0"
    },
    "scene" : 0,
    "scenes" : [
        {
            "name" : "Scene",
            "nodes" : [
                0
            ]
        }
    ],
    "nodes" : [
        {
            "mesh" : 0,
            "name" : "model_T",
            "scale" : [
                31.172531127929688,
                31.172531127929688,
                31.172531127929688
            ]
        }
    ],
    "materials" : [
        {
            "doubleSided" : true,
            "name" : "Body.001",
            "pbrMetallicRoughness" : {
                "baseColorTexture" : {
                    "index" : 0
                },
                "metallicFactor" : 0
            }
        }
    ],
    "meshes" : [
        {
            "name" : "model_TMesh.001",
            "primitives" : [
                {
                    "attributes" : {
                        "COLOR_0" : 0,
                        "POSITION" : 1,
                        "TEXCOORD_0" : 2,
                        "NORMAL" : 3
                    },
                    "indices" : 4,
                    "material" : 0
                }
            ]
        }
    ],
    "textures" : [
        {
            "sampler" : 0,
            "source" : 0
        }
    ],
    "images" : [
        {
            "mimeType" : "image/jpeg",
            "name" : "model_T",
            "uri" : "model_T.jpg"
        }
    ],
    "accessors" : [
        {
            "bufferView" : 0,
            "componentType" : 5123,
            "count" : 4002,
            "normalized" : true,
            "type" : "VEC4"
        },
        {
            "bufferView" : 1,
            "componentType" : 5126,
            "count" : 4002,
            "max" : [
                0.19839273393154144,
                0.19933052361011505,
                0.14066071808338165
            ],
            "min" : [
                -0.21090324223041534,
                -0.20575599372386932,
                -0.14315126836299896
            ],
            "type" : "VEC3"
        },
        {
            "bufferView" : 2,
            "componentType" : 5126,
            "count" : 4002,
            "type" : "VEC2"
        },
        {
            "bufferView" : 3,
            "componentType" : 5126,
            "count" : 4002,
            "type" : "VEC3"
        },
        {
            "bufferView" : 4,
            "componentType" : 5123,
            "count" : 22890,
            "type" : "SCALAR"
        }
    ],
    "bufferViews" : [
        {
            "buffer" : 0,
            "byteLength" : 32016,
            "byteOffset" : 0,
            "target" : 34962
        },
        {
            "buffer" : 0,
            "byteLength" : 48024,
            "byteOffset" : 32016,
            "target" : 34962
        },
        {
            "buffer" : 0,
            "byteLength" : 32016,
            "byteOffset" : 80040,
            "target" : 34962
        },
        {
            "buffer" : 0,
            "byteLength" : 48024,
            "byteOffset" : 112056,
            "target" : 34962
        },
        {
            "buffer" : 0,
            "byteLength" : 45780,
            "byteOffset" : 160080,
            "target" : 34963
        }
    ],
    "samplers" : [
        {
            "magFilter" : 9729,
            "minFilter" : 9987
        }
    ],
    "buffers" : [
        {
            "byteLength" : 205860,
            "uri" : "me.bin"
        }
    ]
}
